<?xml version="1.0" encoding="UTF-8"?>
<svg id="Layer_1" xmlns="http://www.w3.org/2000/svg" viewBox="0 0 1632.9 1101.68">
  <path d="M91.95,1046.67c.89-5.88,2.1-10.17,7.15-11.2,3.58-.73,4.66-2.78,5.68-5.92,2.39-7.41,8.79-10.28,13.51-6.23,1.1.94,1.89,4.08,1.22,4.95-3.96,5.09-8.45,9.77-12.65,14.67-1.25,1.46-1.91,3.51-3.31,4.76-1.87,1.66-4.5,4.18-6.26,3.8-2.26-.49-3.97-3.49-5.33-4.84Z" style="fill: #fff; stroke: #fff; stroke-miterlimit: 10;"/>
  <path d="M141.58,1009.44c-4.18,4.05-7.82,8.45-12.35,11.52-1.77,1.2-5.79-.04-8.37-1.14-3.6-1.53-3.59-4.42-.88-7.1,3.31-3.27,6.54-6.66,10.19-9.51,1.67-1.3,5.05-2.63,6.24-1.84,2.04,1.37,2.98,4.4,5.19,8.07Z" style="fill: #fff; stroke: #fff; stroke-miterlimit: 10;"/>
  <path d="M523.34,115.86c-1.4,2.16-2.5,5.78-4.27,6.14-2.89.6-6.72-.13-9.23-1.74-4.09-2.61-4.75-10.38-1.74-14.21,1.94-2.46,4.39-4.53,6.61-6.77,2.39,3.45,5.01,6.78,7.07,10.42.85,1.49.5,3.65.7,5.51.29.22.58.43.86.65Z" style="fill: #fff; stroke: #fff; stroke-miterlimit: 10;"/>
  <path d="M1443.07,779.26c.05,2.78-.58,6.04-5.76,5.65-4.46-.33-7.5-3.53-7.2-8.26.25-3.91,2.63-5.34,6.46-5.15,5.51.27,6.68,1.33,6.5,7.76Z" style="fill: #fff; stroke: #fff; stroke-miterlimit: 10;"/>
  <path d="M1331.74,741.07c-.52,1.16-1.26,4.12-1.92,4.1-2.83-.08-5.76-.77-8.38-1.88-.55-.23,0-3.18.14-4.87.15-1.94,0-4.05.73-5.77.76-1.79,2.4-3.21,3.65-4.8,1.19,1.32,2.85,2.45,3.46,4,1.06,2.71,1.47,5.67,2.31,9.21Z" style="fill: #fff; stroke: #fff; stroke-miterlimit: 10;"/>
  <path d="M145.28,1004.1c-2.53-1.8-5.06-3.59-7.6-5.39,2.68-2.89,5.36-5.77,8.04-8.66,1.98,2.62,4.87,4.98,5.72,7.93,1.06,3.67-1.97,5.17-6.16,6.12Z" style="fill: #fff; stroke: #fff; stroke-miterlimit: 10;"/>
  <path d="M419.02,829.96c-3.99,2.1-6.95,4.95-9.22,4.48-2.04-.42-4.39-4.34-4.72-6.96-.56-4.32,3.62-6.79,6.82-6.09,2.4.52,4.02,4.62,7.12,8.58Z" style="fill: #fff; stroke: #fff; stroke-miterlimit: 10;"/>
  <path d="M387.87,843.4c-.37-5.56,7.52-14.29,11.43-13.55,1.07.2,2.6,1.89,2.6,2.9.01,1.79-.44,4.52-1.65,5.22-3.71,2.15-7.88,3.53-12.38,5.43Z" style="fill: #fff; stroke: #fff; stroke-miterlimit: 10;"/>
  <path d="M1413.99,774.86c.08,3.74-.82,6.65-5.16,6.4-3.21-.18-6.61-.65-6.74-4.96-.12-4.09,2.21-6.21,6.2-6.24,3.23-.03,6.08.73,5.7,4.81Z" style="fill: #fff; stroke: #fff; stroke-miterlimit: 10;"/>
  <path d="M1333.12,758.13c-3.12,3.22-4.82,6.51-6.82,6.71-3.97.4-6-2.99-5.32-6.72.37-2.01,3.01-5.43,3.83-5.21,2.54.68,4.7,2.79,8.32,5.22Z" style="fill: #fff; stroke: #fff; stroke-miterlimit: 10;"/>
  <path d="M1408.61,767.37c-1.26-2.02-3.65-4.16-3.46-6.04.19-1.83,2.91-4.66,4.69-4.79,2.7-.19,6.5,1.07,5.53,5.18-.51,2.13-2.71,3.85-4.15,5.75-.87-.04-1.74-.07-2.61-.11Z" style="fill: #fff; stroke: #fff; stroke-miterlimit: 10;"/>
  <path d="M1198.08,118.97c-1.48-1.33-3.25-2.47-4.36-4.06-.97-1.38-1.49-3.26-1.59-4.96-.03-.51,2.25-1.84,3.06-1.57,1.77.59,4.12,1.64,4.7,3.1.81,2.03.2,4.62.2,6.96-.67.17-1.34.35-2.01.52Z" style="fill: #fff; stroke: #fff; stroke-miterlimit: 10;"/>
  <path d="M1437.85,804.5c2.08,2.45,3.92,3.74,4.24,5.33.2,1-1.87,2.46-2.92,3.72-1.24-1.32-2.96-2.45-3.55-4.02-.35-.94,1.06-2.54,2.24-5.03Z" style="fill: #fff; stroke: #fff; stroke-miterlimit: 10;"/>
  <g>
    <path d="M848.93,560.63c-.09-14.21-.02-28.42-.31-42.62-.08-3.88-1.77-7.76-1.68-11.61.18-7.54,1.59-15.07,1.57-22.59-.03-10.98-1.25-21.96-1.28-32.94-.03-13.2.44-26.41,1.1-39.59.57-11.41-2.24-22.79.49-34.27,1.04-4.36-.46-9.29-.47-13.96-.01-7,.48-14.01.37-21.01-.11-6.73-.96-13.46-1.02-20.19-.08-9.52.62-19.06.32-28.56-.27-8.54-1.04-17.1-2.29-25.56-1.48-10.08-2.35-20.57-5.93-29.94-4.65-12.15-12.44-22.61-22.75-31.33-9.08-7.68-19.45-12.27-30.14-16.61-10.47-4.26-21.41-5-32.46-3.54-7.64,1.01-15.72-2.79-22.99,2.11-.08.06-.34-.11-.5-.21-4.39-2.83-8.54-1.18-12.82.47-1.22.47-2.91-.51-4.36-.42-4.16.24-9.35-.66-12.13,1.49-2.26,1.75-1.79,7.23-2.2,11.09-.19,1.79.71,3.68.6,5.49-.79,13.66-2.19,27.32,1.12,40.87.16.67-.26,1.45-.3,2.19-.34,5.57-.94,11.15-.94,16.73.01,19.83.35,39.66.33,59.49-.01,13.03-.59,26.06-.61,39.09-.02,11.54.57,23.09.53,34.63-.03,8.53-1.29,17.1-.85,25.59.72,13.85,1.04,27.67.9,41.53-.27,25.51-.13,51.03-.05,76.54.03,8.94.64,17.87.6,26.81-.06,13.79-.57,27.57-.64,41.36-.03,6.49.73,12.99.71,19.49-.02,9.47-.49,18.94-.62,28.42-.11,7.96.4,15.95-.1,23.88-.52,8.31-1.91,16.57-2.95,25.13-3.06.4-6.79.6-10.38,1.41-6.32,1.44-7.08,1.08-7.73-5.47-.24-2.42-.43-4.88-.24-7.29.47-5.92,1.6-11.81,1.66-17.72.08-6.94-1.01-13.89-1.03-20.84-.1-29-.05-58,.1-87.01.04-7.76.87-15.52.82-23.28-.03-5.88-.9-11.75-1.36-17.63-.48-6.22-1.38-12.45-1.29-18.66.2-12.76,1.25-25.52,1.35-38.28.07-9.29-1.04-18.57-1.23-27.87-.12-6.13.58-12.27.71-18.41.17-8.22.12-16.44.19-24.66.1-12.18.6-24.37.17-36.52-.23-6.5.47-12.92-1.21-19.66-1.52-6.12,1.62-13.27,1.84-19.99.42-12.76-1.26-25.52.8-38.33.93-5.78-.45-11.89-.41-17.85.04-6.25.55-12.5.79-18.75.09-2.29.14-4.6-.06-6.87-.15-1.83-1.04-3.63-1.01-5.43.24-12.14.67-24.28.95-36.42.09-4.12-.31-8.11-5.76-8.55-5.28-.43-7.4,2.55-7.63,7.7-2.64-4.8-8.18-3.84-14.93,2.39.21-1.69.4-3.16.68-5.38-4.62,0-8.71.15-12.78-.05-3.47-.16-5.3,1.11-5.39,4.69-.06,2.24-.52,4.49-.36,6.7.57,7.78,1.73,15.54,1.92,23.32.32,12.98.11,25.98.04,38.98-.11,20.3-.27,40.61-.44,60.91-.13,16.03-.31,32.05-.46,48.08-.19,19.39-.35,38.78-.57,58.18-.03,2.47-.32,4.94-.49,7.41l-1.68.41c-1.3-2.44-3.1-4.75-3.8-7.35-2.12-7.93-3.66-16.01-5.7-23.96-3.23-12.57-6.75-25.06-10.03-37.61-2.06-7.88-3.96-15.8-5.81-23.73-.33-1.39.02-2.93-.1-4.38-.27-3.29-.34-6.63-1.02-9.83-.81-3.82-2.35-7.47-3.25-11.27-4.89-20.45-9.73-40.91-14.46-61.39-1.34-5.78-2.32-11.64-3.34-17.49-2.06-11.73-3.97-23.49-6.06-35.22-.96-5.39-4.86-5.58-9.03-4.42-1.74.48-3.47,1.5-4.85,2.68-3.89,3.35-6.51,1.4-8.7-1.94-1.01-1.54-1.56-3.39-2.23-5.13-4.04-10.4-6.66-21.67-12.46-30.96-6.16-9.86-6.88-21.16-11.72-31.16-2.33-4.83-3.62-10.29-6.6-14.62-1.47-2.13-5.81-3.31-8.7-3.09-2.02.16-5.33,3.39-5.38,5.33-.16,5.49-.42,11.89,2.16,16.3,2.55,4.36,3.4,8.25,4.19,13,1.61,9.63,4.85,18.97,7.23,28.48,1.74,6.96,3.18,13.99,4.84,21.38-11.02-1.09-12.78,1.27-9.42,10.66.76,2.11,1.37,4.27,2.17,6.36,5.75,15.11,8.65,31.37,18.12,45.02.76,1.1.05,3.21.05,4.85.03,6.52-.04,13.03.15,19.54.18,6.38.99,12.77.86,19.14-.19,9.14-2.06,18.37-1.2,27.37.66,6.92.33,13.37-.56,20.16-.9,6.86-.02,13.95,0,20.95.04,10.7,0,21.4.02,32.1.02,9.65-.05,19.31.18,28.96.45,18.77,1.22,37.53,1.59,56.29.35,17.82,0,35.67.67,53.48.44,11.75,2.27,23.44-.06,35.18-.17.85.44,1.82.48,2.74.23,5.72,1.38,11.64.28,17.11-.91,4.54.12,8.13.77,12.33,1.03,6.61,6.54,13.03,1.34,20.42-1.49,2.11-.55,5.93-.74,9.14,2.47-.34,4.06-.55,6.54-.89-9.13,8.65-9.86,14.88-3.59,24.31-5.83,7.1-4.7,43.32,2.34,55.98-7.3,2.1-14.31,4.11-21.33,6.13-.38-.52-.76-1.03-1.15-1.55,3.86-4.08,6.54-8.09,5.09-14.21-1.28-5.37,0-11.5-7.87-12.71,2.73-2.86,6.71-5.13,6.99-7.79.35-3.41-2.27-7.14-3.9-11.53,3.64-3.4,3.66-8.65,1.45-14.28-.33-.84-.3-1.83-.4-2.76-1.54-15.41-3.06-30.82-4.66-46.23-.13-1.21-.9-2.35-1.29-3.54-.32-.97-.73-1.97-.76-2.96-.11-4.04-.07-8.08-.14-12.12-.02-1.39-.35-2.79-.26-4.18.16-2.56.85-5.12.7-7.64-.16-2.73-1.28-5.4-1.54-8.13-.92-9.64-1.62-19.31-2.46-28.96-1.34-15.34-2.74-30.68-4.08-46.02-.64-7.4-1.09-14.81-1.81-22.2-1.5-15.38-3.18-30.75-4.69-46.13-.81-8.24-1.36-16.5-2.11-24.74-1.19-13-2.59-25.98-3.64-38.99-.93-11.55-1.29-23.14-2.29-34.68-1.07-12.29-2.66-24.53-3.92-36.81-.54-5.29-.67-10.62-1.23-15.91-.87-8.3-2.17-16.55-2.89-24.86-.81-9.36-1.17-18.76-1.78-28.14-.13-2.03-.51-4.04-.71-6.07-.69-7.07-.83-14.24-2.21-21.17-.86-4.32-1.58-7.6,2.11-11.08,3.13-2.95,1.77-8.62-1.94-11.3-4.39-3.18-6.6-2.78-9.87,2.34-1.84,2.88-3.17,6.09-4.96,9.62-.53-1.05-1.25-1.91-1.4-2.86-1.25-8.11-2.26-16.26-3.61-24.35-2.52-15.02-5.14-30.02-7.89-44.99-1.55-8.42-3.6-16.74-5.13-25.17-2.05-11.28-3.54-22.67-5.9-33.88-.52-2.47-3.36-5.38-5.78-6.22-1.88-.65-6.33,1.12-6.85,2.71-.9,2.77.26,6.25.76,9.4.23,1.46,1.6,3.02,1.29,4.22-2.3,8.76-1.93,17.05,3.09,24.91.54.85-.2,2.47-.17,3.72.1,4.95.1,9.91.47,14.84.16,2.18,1.46,4.27,1.63,6.45.76,9.77,1.27,19.56,1.94,29.33.33,4.9.69,9.81,1.25,14.69.52,4.56,1.31,9.08,1.98,13.62-.13,2.01-2.17,4.07-2.64,6.44-3,15.31-5.61,30.69-8.46,46.03-.31,1.65-1.54,4.58-1.98,4.52-2.21-.33-5.45-.88-6.23-2.42-2.56-5.01-6.67-7.14-11.7-8.24-1.2-.26-3.19-.79-3.54-.29-.71,1.01-.99,2.74-.68,3.99,2.6,10.49,6.5,20.55,14.44,28.1,4.67,4.44,5.78,8.47,5,14.98-2.65,21.95-3.95,44.06-6.14,66.07-2.11,21.13-4.91,42.19-7,63.32-1.97,19.9-3.37,39.85-5.08,59.78-2.11,24.54-4.29,49.07-6.42,73.6-1.25,14.43-2.4,28.87-3.72,43.3-1.33,14.58-2.97,29.14-4.19,43.73-.79,9.43-1.12,18.89-1.56,28.35-.18,3.82-2.38,8.73,5.43,9.5-6.03-.35-5.72,3.12-5.83,6.5-.25,7.69-.51,15.38-1.03,23.05-.24,3.58-1.56,7.41,4.48,6.73.42-.05,1,1.25,1.66,2.13-1.9.98-4.62,1.62-4.73,2.57-.37,3.17-1.01,8.14.66,9.34,3.29,2.36,8.03,3.04,12.27,3.47.77.08,2.08-4.33,2.99-6.73.91-2.41,1.63-4.89,2.43-7.35.84.19,1.67.38,2.51.58,0,2.89.05,5.78-.01,8.67-.08,3.59,1.39,5.88,5.17,5.84,3.72-.03,7.34-.67,7.79-5.42.53-5.59,1.09-11.2,1.25-16.81.27-9.81.1-19.63.4-29.44.11-3.5,1.4-6.96,1.57-10.46.41-8.44.08-16.92.78-25.33.91-10.92,2.53-21.77,3.84-32.66.6-4.95,3.53-6.47,8.25-6.05,2.26.2,4.62-.47,6.91-.89,1.42-.26,3.27-1.58,4.1-1.07,4.46,2.73,8.15-.05,12.25-.93,8.58-1.85,12.14.43,12.37,8.51.22,7.58,1.22,15.14,1.94,22.7,1.31,13.73,2.51,27.48,4.12,41.17.42,3.59,3.77,7.49,2.94,10.46-1.85,6.6.86,11.93,2.4,17.71,1.02,3.84,1.97,7.71,2.82,11.59.18.83-.25,1.79-.36,2.69-.38,2.98-1.28,6.02-.99,8.93.59,5.88,4.62,11.35,2.03,17.63-.12.28.14.72.23,1.08q1.93,8.01-6.18,10.31c-3.23.92-6.43,2.01-9.68,2.86-2.52.67-5.1,1.1-7.66,1.63-.18-.59-.35-1.17-.53-1.76l15.63-5.84c-.22-.6-.43-1.2-.65-1.8-23.37,5.58-46.75,11.16-70.12,16.73.13.89.26,1.78.39,2.66,2.37-.2,4.97.17,7.05-.71,3.56-1.51,5.23-.78,5.79,3.18-.79.22-1.49.39-2.17.61-6.92,2.22-14.6,1.33-21.1,5.75-1.72,1.17-5.7.47-7.86-.75-4.81-2.71-8.49-4.57-14.73-1.82-8.56,3.77-18.47,4.34-27.45,7.36-25.15,8.45-50.1,17.5-75.18,26.2-5.25,1.82-10.67,3.12-15.96,4.65,0-8.96-.42-16.4.11-23.78.64-8.82,2.15-17.58,3.15-26.39.5-4.37,1.89-7.67,7.1-7.31,2.93.2,5.87.46,8.79.76,5.22.54,9.62-.53,10.35-6.6.56-4.68.43-9.45.53-14.18.22-9.85.46-19.71.54-29.57.01-1.71-1.27-3.48-1.1-5.13.72-7.27,2.36-14.49,2.56-21.76.44-16.22.2-32.45.29-48.67.05-9.76.18-19.52.33-29.29.22-13.58.53-27.16.73-40.74.16-10.64.12-21.29.44-31.93.04-1.3,1.67-3.6,2.64-3.65,9.86-.44,19.74-.61,29.61-.52,1.22.01,3.44,2.01,3.48,3.14.4,11.67.42,23.36.6,35.04.26,17.05-2.99,34.2,1.37,51.15.17.68-.06,1.46-.11,2.19-.62,10.09-1.49,20.18-1.78,30.28-.28,9.7.11,19.42.11,29.13,0,15.69,0,31.38-.19,47.07-.04,3.86-.41,7.8-1.25,11.56-1.92,8.59,2.62,15.04,11.65,16.13v-4.51c7.03,1.46,13.93,2.89,21.95,4.55-1.29-4.72-2.28-8.02-3.03-11.38-.15-.66.83-2.24.99-2.2,1.14.29,2.5.62,3.21,1.44,1.16,1.36,1.52,3.9,2.86,4.51,2.48,1.13,5.81,2.29,8.1,1.49,3.33-1.17,2.93-4.32,1.57-7.59-1.02-2.45-.81-5.5-.79-8.27.07-9.35.34-18.69.45-28.04.16-13.86.28-27.72.37-41.57.05-7.7,0-15.4,0-23.1,0-3.98-.05-7.97.05-11.95.29-11.62.77-23.25.91-34.87.08-7.01-.67-14.03-.48-21.04.48-17.42,1.33-34.84,1.94-52.26.12-3.36.6-7.01-.49-10.03-1.52-4.21-.72-7.29,2.23-10.07,4.62-4.35,3.21-8.84,1.08-13.82-1.66-3.87-3.31-8.12-3.38-12.22-.26-13.63.32-27.27.33-40.9,0-5.38-1.01-10.77-.92-16.14.21-13.19.86-26.37,1.16-39.55.07-3.3-.84-6.61-.79-9.91.2-15.17,1.28-30.38.47-45.49-.25-4.64,3.54-10.04-1.17-14.38-.14-.13.49-.96.58-1.49.58-3.47,1.51-6.94,1.54-10.41.03-2.91-1.6-5.85-1.46-8.73.67-13.82,1.79-27.63,2.51-41.45.25-4.85.2-9.77-.38-14.58-.75-6.2-5.5-7.67-11.13-4.9-5.03,2.48-10.62,4.93-16.05,5.14-4.75.18-9.95,2.91-14.89-.96-1.92-1.5-5.44-.68-5.73,3.04-.32,4.19-.41,8.43-.27,12.63.15,4.63,1.02,9.26.96,13.88-.22,18.81-.79,37.61-1,56.42-.16,14.74-.12,29.49.09,44.22.11,7.73,1.29,15.46,1.14,23.17-.36,17.44-1.27,34.87-1.91,52.3-.38,10.27-.49,20.55-1.21,30.79-.12,1.69-2.61,4.35-4.3,4.6-8.63,1.27-17.38,1.73-26.04,2.84-3.7.47-5.24-.53-5.21-4.28.11-15.14.11-30.27.21-45.41.1-14.53.41-29.05.4-43.57-.01-14.62-.31-29.23-.48-43.85-.02-2.06-.03-4.11-.03-6.17-.03-10.27-.24-20.54-.02-30.81.27-12.45,1.07-24.88,1.33-37.32.18-8.52-.27-17.06-.29-25.59-.01-4.81-2.9-7.1-7.58-6.08-3.56.78-7.2,1.33-10.83,1.6-6.65.48-9.47,3.36-8.74,9.7-5.13-.15-6.58-4.31-7.43-7.76-2.56-10.4-4.94-20.89-6.47-31.48-2.19-15.11-3.57-30.33-5.28-45.51-.65-5.74.1-12.1-2.19-17.08-4.48-9.74.34-21.07-6.13-30.17-.23-.33.2-1.07.18-1.61-.18-5.29-.28-10.59-.63-15.87-.23-3.57-2.64-4.55-5.89-4.39-3.31.16-5.93,1.08-6.33,4.91-.74,6.88-1.18,13.65,7.56,16.42-8.31,5.29-8.79,8.19-3.21,15.96.5.7,1.2,1.93.92,2.4-2.54,4.42-.68,8.59-.23,13.11,1.19,11.74.73,23.63,1.48,35.42.66,10.39,1.99,20.74,3.16,31.1.31,2.75,2.16,5.77,1.46,8.11-2.23,7.43.36,13.89,2.57,20.62.71,2.18.32,4.7.56,7.05.38,3.69.63,7.42,1.4,11.03.41,1.92,2.38,3.56,2.62,5.46,1.08,8.67,2.3,17.38,2.54,26.1.42,15.77.19,31.56.2,47.34,0,13.09-.02,26.18-.06,39.27-.03,11.5-.16,23.01-.13,34.51,0,2.94.76,5.89.65,8.82-.49,13.11-1.44,26.21-1.69,39.33-.25,13.16.25,26.33.09,39.49-.02,1.68-1.8,4.56-3.14,4.8-8.22,1.5-16.57,2.28-24.83,3.56-3.42.53-6.75,1.65-10.1,2.59-2.65.74-5.28,1.56-7.89,2.45-5.92,2.01-11.91,3.85-17.69,6.2-4.84,1.96-4.1,6.48-3,10.16.6,2.01,3.13,4.84,4.85,4.88,5.91.16,11.86-.61,17.76-1.29,5.51-.64,10.97-1.69,16.47-2.41,6.26-.83,12.59-1.26,18.81-2.33,5.47-.94,8.1.1,8.58,5.59.61,6.96.22,14.01.36,21.02.22,10.62.58,21.23.77,31.85.14,7.62.09,15.23.17,22.85.02,2.04.71,4.21.2,6.08-1.65,6.12-3.53,12.1.46,18.09.28.41-.82,1.57-.89,2.42-.31,3.82-.59,7.66-.64,11.49-.02,1.99,1,4.1.63,5.98-3,15.51.33,31.27-1.94,46.8-.13.89.33,1.85.33,2.77,0,7.25-.28,14.51.02,21.74.14,3.51,2,7.01,1.85,10.47-.16,3.77-1.82,7.46-2.65,11.23-.57,2.6-.85,5.26-1.34,8.41,3.06,3.37,2.99,3.33.33,8.4-.75,1.43-1.33,3.14-1.37,4.73-.13,5.58.27,11.17-.02,16.73-.22,4.2-1.45,8.35-1.76,12.55-.69,9.37-1.08,18.76-1.61,28.14-.02.36-.27.7-.37,1.05-2.56,8.68-10.15,11.46-17.34,14.58-4.79,2.08-9.83,3.56-14.61,5.66-15.51,6.83-31.18,13.35-46.33,20.91-9,4.49-19.28,7.33-25.69,16.18-.64.88-2.64.72-3.98,1.13-3.41,1.03-7.07,1.61-10.14,3.27-5.24,2.83-10.03,6.47-15.14,9.55-6.99,4.21-14.12,8.19-21.13,12.36-1.08.65-2.43,1.69-2.67,2.77-.95,4.36-3.92,4.18-7.46,4.7-2.69.39-6.62,2.82-7.12,5-.59,2.6,1.4,6.25,3.18,8.81,2.07,2.96,5.22,2.15,8.03.39.95-.59,2-1.03,3.01-1.51,14.47-6.96,28.62-13.44,45.86-11.02,8.97,1.26,19.16-1.04,27.88-4.24,17.38-6.38,34.12-14.49,51.14-21.87,7.27-3.15,14.56-6.26,22.56-9.7.23,2.27.6,3.69.47,5.06-.86,8.72-1.91,17.43-2.73,26.15-.7,7.43-.38,15.31-9.87,17.86-.49.13-.88.69-1.3,1.05-13.51,11.51-27.67,22.35-40.34,34.72-10.75,10.49-24.3,18.62-30.8,33.1,4.92,4.57,9.91,5.94,13.5,2.84,6.37-5.52,12.29-11.56,18.36-17.42.52-.5.65-1.38,1.14-1.91,2.33-2.53,4.62-5.11,7.12-7.47,1.47-1.39,3.48-2.23,4.94-3.63,8.77-8.34,17.45-16.79,26.2-25.16,1.12-1.07,2.48-1.91,4.65-3.56,0,2.94.11,4.76-.02,6.55-.64,9.15-1.14,18.21-2.86,27.36-2.41,12.83.74,26.19-1.27,39.27-.27,1.76.02,3.98.91,5.47,1.5,2.5,3.32,5.66,5.71,6.47,1.56.53,5.6-2.16,6.35-4.2,1.54-4.24,2.01-8.99,2.23-13.56.39-8.03.26-16.09.4-24.14,0-.48.6-.93.73-1.44.91-3.45,2.02-6.87,2.55-10.38.44-2.92-.09-5.98.26-8.92.79-6.6,1.72-13.2,2.85-19.75.91-5.3,2.07-10.56,3.42-15.77.33-1.26,1.6-2.74,2.8-3.25,13.1-5.6,22.67-16.14,33.96-24.25,5.34-3.84,10.21-8.36,15.57-12.96.99-1.79,2.23-3.4,3.66-4.8-.22-.03-.41-.06-.64-.09,1.14-.71,2.24-1.43,3.33-2.15.45-.32.9-.63,1.37-.92,8.02-5.38,15.03-10.71,23.58-13.8,7.44-2.69,14.46-6.67,21.38-10.58,1.59-.9,2.01-3.87,2.96-5.89-1.75-.43-3.87-1.73-5.2-1.16-14.42,6.15-29.57,11.19-42.83,19.31-15.05,9.22-28.34,21.31-42.49,32.03-4.26,3.23-8.85,6.03-13.29,9.03-.49-.4-.97-.8-1.46-1.2.65-5.11,1.21-10.24,1.97-15.33,1.54-10.31,2.99-20.65,4.89-30.9.96-5.15,3.21-9.2,9.73-9.76,4.5-.39,8.9-2.49,13.22-4.16,18.73-7.25,37.26-15.04,56.15-21.83,18.83-6.77,38.02-12.52,57.01-18.84,4.05-1.35,7.82-3.56,11.9-4.76,14.04-4.13,28.15-8.08,42.27-11.93,16.31-4.46,32.65-8.8,49.03-13,1.33-.34,4.14.46,4.42,1.33,1.99,6.21,3.66,12.53,5.1,18.89.77,3.4-.56,5.29-4.46,6.21-9.69,2.3-19.3,5.08-28.78,8.13-2.63.85-4.72,3.35-6.55,4.71-.57-3.99-4.6-1.79-7.51-1.03-8.17,2.14-16.13,5.25-24.39,6.86-4.9.96-8.46,1.76-7.9,6.48-1.45-.61-3.17-2.04-4.56-1.78-3.32.63-6.02,2.22-4.45,6.61,1.91,5.36,3.92,6.63,8.58,4.87,8-3.02,15.85-6.5,24.01-9.01,11-3.38,22.2-6.09,33.35-8.95,7.86-2.02,15.78-3.81,23.46-5.65,1.02,6.63,1.51,12.96,3.14,18.98.7,2.61,3.55,6.2,5.76,6.46,2.74.32,7.94-1.87,8.38-3.82,1.36-5.96,1.98-12.51.85-18.44-.73-3.83-1.63-5.6,2.68-6.86,11.41-3.33,22.76-6.92,34.15-10.32,4.74-1.41,5.47-.24,5.06,4.79-.15,1.81,1.77,4.77,3.49,5.52,2.89,1.28,5.7-.03,5.77-3.82.06-3.12-.36-6.25-.61-10.1,23.98-5.65,48.03-11.31,71.5-16.83,4.13,15.34,7.93,29.46,11.73,43.59,1.22,4.55,3.21,7.92,8.9,7.08,5.32-.79,7.89-4.42,7.42-8.93-.73-7.09-1.5-14.67-4.6-20.87-3.52-7.04-4.24-14.17-4.94-21.53-.1-1.03,1.28-2.85,2.35-3.22,4.38-1.48,8.84-2.83,13.38-3.7,12.2-2.34,24.48-4.26,36.68-6.61,13.72-2.65,27.43-5.34,41.05-8.47,10.86-2.49,21.44-6.33,32.38-8.27,7.64-1.35,15.15-5.08,23.38-2.7,1.58.46,3.97-.66,5.55-1.7,3.96-2.59,7.58-4.41,12.87-3.63,3.49.51,7.8-1.64,11.05-3.69,1.43-.91,1.88-4.75,1.31-6.88-.32-1.19-3.68-2.38-5.55-2.21-6.93.63-13.85,1.59-20.7,2.86-14.39,2.67-28.72,5.62-43.07,8.47-6.9,1.37-13.81,2.72-20.7,4.14-9.59,1.98-19.16,4.06-28.76,6-6.36,1.29-12.81,2.16-19.11,3.67-11.18,2.68-22.26,5.77-33.42,8.53-2.73.67-5.03.25-5.91-3.32-2.6-10.55,4.73-16.88,9.96-24.08.52-.72,2.03-.73,3.08-1.06,10.65-3.38,21.33-6.66,31.94-10.18,4.18-1.39,8.85-5.46,12.13-4.47,5.74,1.73,9.66.05,14.13-2.39,11.41-6.23,24.72-5.49,36.8-10.77,14.6-6.38,27.06-14.81,38.12-25.66,9.38-9.2,17.44-19.63,21.29-32.43,3.81-12.63,7.4-25.39,9.92-38.33,1.66-8.5,1.47-17.41,1.57-26.14.02-1.76-2.32-3.6-3.71-5.29-.5-.61-1.41-.89-2.13-1.31,4.8.7,6.3-1.51,6.27-5.6ZM469.48,527.43c-6.43.93-12.91,1.61-19.4,1.92-.84.04-2.68-2.58-2.57-3.84.92-10.53,2.28-21.03,3.33-31.56.67-6.69,1.04-13.4,1.58-20.1,1.64-20.43,3.22-40.87,5.04-61.29.28-3.14,1.71-6.18,2.61-9.26.57.09,1.14.17,1.71.26.79,8.24,1.55,16.48,2.37,24.71.85,8.47,1.83,16.93,2.64,25.4.64,6.64,1.13,13.3,1.63,19.95.89,11.88,1.72,23.76,2.61,35.63.37,4.98,1.03,9.96,1.13,14.94.02,1.1-1.62,3.07-2.7,3.22ZM237.47,848.89c-2.36,2.55-5.44,4.68-8.59,6.22-24.12,11.83-48.27,23.62-72.56,35.09-5.96,2.81-12.46,4.48-18.77,6.52-.93.3-2.15-.29-3.85-.57.77-6.45,4.73-9.75,9.38-12.33,25.95-14.44,52.93-26.69,80.66-37.3,3.12-1.19,5.89-3.32,9.05-4.34,1.87-.61,4.17.1,6.28.21-.49,2.22-.28,5.07-1.61,6.51ZM382.58,779.96c-17.84,7.17-35.59,14.56-53.49,21.59-12.64,4.97-25.46,9.46-38.18,14.21-7.68,2.87-15.29,5.95-23.03,8.65-1.36.47-3.2-.44-4.81-.71,1.21-1.54,2.13-3.97,3.68-4.47,9.51-3.09,19.46-5.03,28.72-8.69,24.67-9.76,50.16-17.61,73.18-31.37,5.5-3.29,12.14-4.78,18.4-6.6,1.97-.57,4.41.48,6.63.79.07.85.14,1.69.2,2.54-3.78,1.35-7.6,2.57-11.32,4.06ZM434.75,765.93c-.2-.83-.41-1.65-.61-2.48,3.35-.73,6.7-1.47,10.05-2.2.17.69.34,1.37.51,2.06-3.31.87-6.63,1.75-9.94,2.62ZM453.15,760.92c1.52-4.98,4.68-5.76,8.58-4.75.19.6.37,1.2.56,1.8-3.05.98-6.09,1.97-9.14,2.95ZM500.77,678.92c-1.11-1.32-2.22-2.64-3.91-4.64,1.61-1.13,3.22-2.66,3.56-2.42,1.34.95,2.83,2.35,3.14,3.82.18.84-1.79,2.15-2.8,3.24ZM514.52,698.22c-.8-.81-2.3-1.64-2.28-2.43.07-3.03.63-6.05,1.01-9.08.63.18,1.26.35,1.89.53.41,2.52,1.06,5.03,1.12,7.55.03,1.13-1.12,2.28-1.73,3.42ZM583.74,614.54c-.28-4.08-.76-9.65-.98-15.22-.11-2.66.37-5.35.4-8.02.04-3.32-.1-6.64-.18-9.96-.23-8.95-1.66-18.06-.44-26.8,2.08-14.87-2.03-29.52.1-44.4,1.24-8.7-.63-17.83-.8-26.77-.19-10.03-.04-20.06-.04-30.09.47-.11.94-.23,1.42-.34,1.07,3.45,2.4,6.84,3.17,10.36,3.68,16.75,7.36,33.5,10.75,50.31,3.74,18.56,6.98,37.22,10.79,55.77,2.61,12.73,5.89,25.32,8.74,38,1.43,6.34,2.57,12.74,3.86,19.11,2.05,10.19,4.23,20.36,6.15,30.58,2.43,12.95,4.59,25.94,6.98,38.9,1.11,6.03,2.51,12.01,3.76,18.02.78,3.75-.64,5.44-4.6,5.82-10.32.98-20.61,2.2-30.89,3.55-7.02.92-13.98,2.22-21.79,3.49,0-2.49-.16-4.32.03-6.11.95-9.14,2.14-18.27,2.89-27.42.22-2.68-1.05-5.45-1.11-8.18-.22-10.6-.42-21.22-.26-31.82.12-7.41,1.25-14.81,1.11-22.2-.05-2.75-2.32-5.51-3.76-8.17-1.01-1.86-2.33-3.56-3.52-5.32,2.35-.87,4.69-1.75,8.23-3.06ZM563.1,720.54c1.39.01,4.01,2.26,3.94,3.35-.28,4.8-3.96,5.44-8.95,5.29,1.74-3.47-1.04-8.69,5.01-8.64ZM552.55,618.29c1.57,2.57,2.9,3.79,2.66,4.51-.89,2.78-2.29,5.39-3.49,8.07-.75-1.49-2.23-3.05-2.09-4.46.23-2.28,1.52-4.45,2.92-8.13ZM637.73,758.91c-27.15,6.63-54.28,13.32-81.46,19.8-8.87,2.12-17.86,3.75-26.82,5.47-4.17.8-6.85-2.78-7.31-9.08-.27-3.67-1-7.31-1.2-10.98-.07-1.24.51-3.36,1.34-3.69,7.17-2.85,14.47-5.39,21.73-8.02.27.74.55,1.48.82,2.23,2.81-1.08,5.58-2.29,8.45-3.2,4.43-1.41,8.86-2.94,13.4-3.84,16.44-3.28,32.91-6.39,49.4-9.41,5.66-1.04,11.4-1.65,17.1-2.45.19-.03.37-.07.56-.08,3.92-.15,10.42,10.28,10.91,17.74.33,4.96-3.77,4.75-6.9,5.52ZM654.62,343.83c-1.6-2.84-2.8-4.05-2.84-5.31-.03-1.07,1.27-2.19,1.98-3.29.97,1.12,2.37,2.1,2.75,3.39.28.95-.76,2.3-1.89,5.2ZM788.86,368.47c.37,9.82,1.44,19.61,1.73,29.43.3,10.09-.11,20.2.06,30.3.13,7.78,1.14,15.56.93,23.31-.23,9.05-1.45,18.07-2.06,27.11-.33,4.81-.36,9.64-.38,14.47-.04,8.01-.14,16.03.12,24.03.21,6.54,1.12,13.06,1.32,19.6.27,8.94.55,17.91.12,26.83-.71,14.74-1.67,29.39-8.49,43.1-4.76,9.57-9.93,17.65-21.97,17.87-3.11.06-6.22.42-9.33.65.2-3.14.61-6.28.57-9.42-.16-14.71-.61-29.42-.6-44.13,0-9.08.81-18.15.98-27.23.17-9.01-.16-18.03.03-27.03.15-6.99.94-13.97,1.09-20.95.07-3.27-1.07-6.57-1.03-9.85.09-8.67.72-17.33.75-26,.03-7.48-.75-14.97-.69-22.45.09-9.8.7-19.59.99-29.38.17-5.71.34-11.44.11-17.14-.08-1.86-1.42-3.67-2.5-6.29,3.49-3.63,4.23-7.83,1.53-12.5-.42-.73-.29-1.82-.29-2.75,0-23.79-.12-47.59.05-71.38.11-15.44.64-30.87.97-46.31.11-5.17,2.81-6.61,7.71-6.1,5.89.62,11.1,2.47,14.56,7.33,5.18,7.28,10.19,14.54,11.17,24.03.73,7.06,3.11,13.95,4.96,21.77-3.56,7.05-2.75,34.07.59,36.7-1.07,4.08-2.56,7.55-2.79,11.1-.46,7.07-.48,14.19-.22,21.27ZM826.62,464.8c-1.22-1.05-3.09-1.9-3.46-3.19-.35-1.22.87-2.9,1.4-4.37.59.02,1.18.05,1.78.07.57,2.2,1.14,4.4,1.71,6.6-.48.3-.95.59-1.42.89Z" style="fill: #fff; stroke: #fff; stroke-miterlimit: 10; stroke-width: 0px;"/>
    <path d="M879.66,480.8c.64.58,1.13,1.24,1.15,1.74.4,11.03.42,22.08.6,33.11.26,16.12-2.99,32.32,1.37,48.34.17.64-.06,1.38-.11,2.07-.62,9.54-1.49,19.07-1.78,28.62-.28,9.17.11,18.35.11,27.53,0,14.83,0,29.66-.19,44.48-.04,3.65-.41,7.37-1.25,10.93-1.92,8.12,2.62,14.22,11.65,15.24v-4.26c7.03,1.38,13.93,2.73,21.95,4.3-1.29-4.46-2.28-7.58-3.03-10.76-.15-.63.83-2.11.99-2.08,1.14.27,2.51.58,3.21,1.36,1.16,1.29,1.52,3.69,2.86,4.26,2.48,1.07,5.81,2.17,8.1,1.41,3.33-1.11,2.93-4.08,1.57-7.18-1.02-2.31-.81-5.19-.79-7.82.07-8.83.34-17.67.45-26.5.16-13.1.28-26.19.37-39.29.05-7.28,0-14.55,0-21.83,0-3.76-.05-7.53.05-11.29.29-10.99.77-21.97.91-32.96.08-6.62-.67-13.26-.48-19.88.48-16.47,1.33-32.92,1.94-49.39.12-3.17.6-6.63-.49-9.48-1.52-3.98-.72-6.89,2.23-9.52,4.62-4.11,3.21-8.36,1.08-13.06-1.66-3.66-3.31-7.67-3.38-11.55-.26-12.88.32-25.77.33-38.65,0-5.09-1.01-10.18-.92-15.26.21-12.46.86-24.92,1.16-37.38.07-3.12-.84-6.25-.79-9.37.2-14.34,1.28-28.71.47-42.99-.25-4.38,3.54-9.48-1.17-13.59-.14-.12.49-.91.58-1.41.58-3.28,1.51-6.56,1.54-9.84.03-2.75-1.6-5.53-1.46-8.25.67-13.06,1.79-26.11,2.51-39.17.25-4.58.2-9.24-.38-13.78-.75-5.86-5.5-7.25-11.13-4.63-5.03,2.34-10.62,4.66-16.05,4.85-4.75.17-9.95,2.75-14.89-.91-1.92-1.42-5.44-.65-5.73,2.87-.32,3.96-.41,7.96-.27,11.94.15,4.38,1.02,8.75.96,13.12-.22,17.78-.79,35.55-1,53.32-.16,13.93-.12,27.87.09,41.8.11,7.3,1.29,14.61,1.14,21.9-.36,16.48-1.27,32.95-1.91,49.43-.38,9.7-.49,19.42-1.21,29.1-.09,1.21-1.53,2.93-2.96,3.81.34,18.57,1.37,37.51,2.01,56.52Z" style="fill: #fff; stroke: #fff; stroke-miterlimit: 10; stroke-width: 0px;"/>
    <path d="M1392.82,724.54c5.35,3.29,6.37,15.62.63,20.2-1.61,1.29-4.41,1.09-6.67,1.57-.06-1.93-.15-3.86-.18-5.79-.03-1.82.76-4.21-.12-5.35-3.18-4.16-2.32-7.93-.62-10.38-2.04-3.79-3.52-6.76-5.24-9.58-.59-.97-1.81-1.57-2.74-2.34-.7.92-2.14,2.02-1.96,2.73.92,3.71,2.57,7.25,3.32,10.98.41,2.05-.45,4.35-.78,6.54-.16,1.06-.76,2.17-.56,3.13,1.17,5.65,2.51,11.27,3.61,16.06,3.5,0,7.11-.04,10.7.13.16,0,.56,2.74.28,2.86-3.24,1.38-6.59,2.5-11.14,4.14,0,2.74-.02,6.87.03,11.01,0,.52.69,1.11.58,1.54-1.85,6.85,1.41,11.61,4.96,17.27,2.22,3.54.47,10.35-1.11,15.15-.71,2.15-5.78,4.56-8.2,3.99-3.05-.71-7.12-3.96-7.75-6.79-1.5-6.73-1.16-13.87-1.76-20.82-.17-1.96-.42-4.6-1.69-5.66-3.82-3.2-3.57-6.9-3.03-11.19.43-3.38-.03-6.9-.29-10.34-.38-4.95-.88-9.9-1.44-14.84-.73-6.43-1.46-12.86-2.38-19.27-1.22-8.46-2.65-16.89-3.94-25.34-1.97-13.02-4.01-26.02-5.81-39.06-1.63-11.78-2.83-23.61-4.49-35.39-1.79-12.69-4.06-25.32-5.8-38.02-.89-6.56-.93-13.24-1.61-19.84-.66-6.42-1.6-12.81-2.53-19.2-.77-5.33-1.84-10.62-2.53-15.97-2.47-19.22-4.51-38.51-7.4-57.67-1.13-7.48-3.82-14.78-6.35-21.97-.58-1.64-3.79-3.73-5.19-3.36-2,.53-4.81,3.05-4.93,4.86-.67,10.41-.71,20.87-.85,31.31-.12,8.98-.28,17.96-.06,26.94.33,13.33,1.12,26.65,1.43,39.98.13,5.49-.71,11.01-.66,16.51.06,7.73.84,15.46.75,23.19-.09,7.42-.89,14.82-1.38,22.23-.07,1.12-.23,2.25-.18,3.36.48,12.45,1.13,24.89,1.44,37.35.31,12.37.32,24.76.4,37.14.04,5.65-3.7,8.68-11.94,9.85-4.73-9.58-5.85-9.99-11.26-3.77-2.97-1.16-3.51-8.15-8.83-4.09.11,9.32-.62,10.21-8.42,9.8,2.18-5.41,2.3-10.03-4.57-12.1-.98-.29-2.25-3.46-1.74-4.28,5.35-8.61.52-17.45.99-26.12.18-3.33,1.13-6.61,1.88-10.8-2.69-1.66-4.47-4.87-1.56-9.28.28-.42.52-.99.49-1.47-.82-12.31-2-24.61-2.43-36.94-.34-9.9.52-19.84.28-29.74-.18-7.38-1.58-14.72-1.9-22.09-.62-14.49-.98-28.99-1.22-43.48-.25-15.4-.13-30.81-.39-46.21-.13-7.81-.55-15.62-1.23-23.4-.12-1.37-2.18-3.71-3.28-3.67-6.06.21-12.17.68-18.13,1.75-3.37.6-3.36,3.61-2.07,6.31,1.78,3.71,2.9,7.16-.2,10.96-.84,1.03-.17,3.47.13,5.2,1.26,7.25,2.64,14.48,4.07,22.17-6.9.09-7.24-3.55-7.02-7.59-3,2.08-2.93,6.35.32,7.64,8.57,3.42,7.13,10.29,7.24,17.16.11,7.4,1.2,14.78,1.86,22.17.05.56.26,1.16.13,1.67-2.06,8.22,1.14,15.97,2.13,23.92.09.74.11,1.49.16,2.24.86,13.18,1.48,26.38,2.66,39.53.65,7.14,2.93,14.17,3.25,21.3.36,7.94-.73,15.95-1.04,23.93-.06,1.62.4,3.31.86,4.89.62,2.14,1.75,4.15,2.18,6.31,1.71,8.73,3.36,17.48,4.73,26.27.41,2.67.28,5.62-.44,8.22-.64,2.32-3.31,4.32.12,6.47-1,1.33-1.82,3.52-3.05,3.78-2.04.43-4.33-.39-5.15-1.83-2.6-5.12-5.2-10.24-7.99-15.75-5.16,4.03-4.2,7.42-1.5,10.88,2.78,3.56,4.56,6.85-.38,10.34-1.19.84-1.82,3.46-1.63,5.14,1.32,11.67,2.96,23.3,4.39,34.96.24,1.94-.31,3.97-.07,5.91.59,4.75,1.73,9.44,2.1,14.2.58,7.39.72,14.82,1,22.23.03.73-.59,1.64-.33,2.18,3.61,7.56-.07,15.73,2.01,23.39,1.38,5.09-.59,8.86-4.75,11.54-3.67,2.37-6.84.62-9.55-2-.87-.84-1.71-2.19-1.76-3.34-.21-5.39-.06-10.79-.21-16.18-.06-2-.7-3.98-.9-5.98-.43-4.37-.69-8.75-1.11-13.12-.22-2.33-.5-4.67-.97-6.96-.48-2.36-1.83-4.69-1.76-7,.43-15.19-4.78-29.65-5.31-44.79-.45-12.95-3.34-25.8-5.1-38.71-.19-1.43-.03-2.91-.03-5.02-20.62,2.97-41,5.91-61.84,8.92-.65,3.64-1.24,8.22-2.32,12.69-.97,4.01-3.08,6.66-8.05,5.63-1.74-.36-3.8.72-5.69,1.25-2.21.62-4.4,1.36-6.85,2.12.38.43,1.04,1.18,1.72,1.9,7.65,8.12,7.28,16.79-1.83,23.57-4.25,3.16-4.46,6.13-2.02,9.87,2.21,3.38,1.93,6.02-.67,9.08-1.32,1.55-1.9,3.94-2.27,6.05-1.69,9.61-3.2,19.26-4.76,28.9-.12.73-.3,1.52-.14,2.21,1.71,7.47,3.02,14.78-6.89,17.91,1.67,2.85,2.95,4.87,4.06,6.97,2.8,5.3,1.08,12.17-4.22,14.33-1.85.75-5.71-.11-6.83-1.6-1.91-2.54-2.96-6.12-3.22-9.35-.13-1.61,2.11-3.58,3.57-5.12,1.38-1.46,3.13-2.57,3.64-2.98-2.24-4.41-5.38-8.09-5.72-12.01-.33-3.83,2.19-7.9,3.67-12.53-4.13-2.09-2.57-7.15-2.08-11.89.77-7.47,1.81-14.93,2.4-22.41,1.25-15.81,1.26-31.8,3.82-47.38,1.46-8.89.84-17.3.53-25.97-.08-2.2.28-5.13,1.66-6.52,3.08-3.12,3.62-6.53,3.8-10.62.42-9.46,1.65-18.88,2-28.34.33-9.23-.25-18.49-.02-27.72.15-6.11.98-12.2,1.58-18.3,1.58-16.26,3.33-32.51,4.76-48.78.88-10.04,1.16-20.13,1.96-30.18,1.23-15.53,2.58-31.06,4.06-46.56.5-5.23-1.41-7.03-6.64-6.61-5.5.44-11.1-.22-16.59.31-1.74.17-4.43,2.42-4.67,4.03-.75,4.89-.6,9.92-.65,14.9-.12,12.87.02,25.74-.29,38.6-.24,9.79-1.28,19.57-1.46,29.36-.17,9.49.33,18.99.46,28.49.07,4.64-.11,9.28-.05,13.92.35,24.65.63,49.3,1.16,73.95.2,9.31,1.01,18.6,1.47,27.9.06,1.28-.23,2.61-.55,3.88-2.6,10.34-3.3,10.69-13.81,9.16-4.51-.65-9.12-.61-13.66-1.08-5.79-.6-8.47-3.92-8.37-9.76.03-1.99-.56-3.99-.89-6.13-6.33,5.99-12.16,11.83-18.38,17.21-1.79,1.55-4.73,2.42-7.15,2.44-6.56.06-13.19-.09-19.68-1-3.76-.53-7.44-2.39-10.91-4.15-14.19-7.24-23.87-18.4-30.72-32.92-7.53-15.95-11.83-32.76-16.36-49.58-1.44-5.32-3.04-10.77-3.23-16.21-.34-9.38.07-18.82.78-28.18.28-3.68,2.24-7.22,3.52-11.08-4.64-3.45-6.41-17.06-2.23-22.61,2.2-2.92,3.61-4.83.12-8.46-2.11-2.2-1.94-7.01-2-10.66-.19-11.18.04-22.37.02-33.56,0-3.74-.27-7.33,5.39-6.55.99.14,2.23-1.59,3.46-2.54-.92-.86-1.21-1.34-1.44-1.32-7.27.75-9.7-1.85-7.28-10.95,1.3-4.87.68-9.35.87-13.99.29-7,.97-7.53,8.25-5.93-1.76-1.6-3.66-3.07-5.23-4.83-1.54-1.72-4.1-3.97-3.83-5.59.82-4.93-1.02-10.7,3.74-14.75.36-.31-.43-2.6-1.21-3.52-3.19-3.76-2.82-6.38,1.55-8.95-4.04-5.6-4.12-8.7-1.1-12.18-1.06-3.69-2.8-6.75-2.62-9.69.4-6.4,1.79-12.73,2.76-19.09.14-.91.35-1.83.34-2.74-.23-13.04-.88-26.08-.68-39.11.42-26.41,1.15-52.82,2.11-79.21.16-4.3,2.33-8.51,3.29-12.82.82-3.7,1.18-7.51,1.86-11.25.4-2.19.64-3.56,4.14-3.54,2.81.01,5.93-3.42,8.41-5.84,5.88-5.72,11.72-11.52,17.09-17.71,6.75-7.78,15.71-11.12,25.22-12.93,24.6-4.66,47.17,4.49,61.97,32.46,6.94,13.13,9.19,27.52,13.32,41.42.31,1.06-.42,2.42-.61,3.64-.31,1.99-1.24,4.17-.76,5.95,2.79,10.27,1.08,20.46.4,30.75-.48,7.25.82,14.6.99,21.92.15,6.9.24,13.84-.39,20.7-.39,4.26-8.81,7.15-14.24,6-2.45-.52-5.2.05-7.75.5-3.77.66-7.75,4.02-10.71-1.6-.27-.51-3.57-.4-4.13.38-3.81,5.33-8.28.55-12.33.76-.74.04-2.46-4.14-2.45-6.37.11-13.98,1.09-27.97.8-41.93-.32-15.44-1.37-30.9-6.22-45.78-.06-.18-.15-.34-.22-.52-2.01-4.88-3.84-10.57-9.8-11.22-6.05-.66-8.11,5.02-10.71,9.3-5.85,9.65-7.16,20.09-6.67,31.25.46,10.41-.63,20.87-.82,31.32-.07,3.7.82,7.43.67,11.12-.17,4.16-1.01,8.3-1.55,12.45-.16,1.25-.48,2.52-.39,3.75.2,2.76.8,5.5.88,8.26.17,5.75.31,11.52.06,17.27-.15,3.66-1.43,7.28-1.49,10.93-.19,11.65,0,23.31-.06,34.97-.03,5.69-.39,11.38-.45,17.07-.01,1.22.84,2.43.88,3.66.11,3.97.03,7.94.03,11.91,0,1.49-.06,2.99.09,4.46.22,2.14.62,4.27.92,6.41.33,2.41.6,4.82.98,7.22.14.89.77,1.76.73,2.62-.39,9.36-1.66,18.76-1.14,28.06.78,13.66-1.96,27.29.82,41.03,1.24,6.13-1.11,12.9-1.04,19.37.12,11.11,1.36,22.23,1.14,33.32-.14,7.08,1.75,14.18,1.21,20.76-.6,7.33,2.85,13.33,3.04,20.25.17,6.06,8.55,10.94,14.59,10.98,4.66.03,9.29-4.79,12.26-10.97,3.91-8.14,3.27-16.79,3.68-25.26.69-14.12.61-28.29.81-42.43.13-9.32-.05-18.66.36-27.97.46-10.49,1.78-20.95,2-31.44.1-4.73-1.37-9.55-2.59-14.2-.17-.63-3.23-1.18-4.6-.72-9.13,3.08-14.21-.47-14.44-9.99-.3-12.28-.98-24.55-1.39-36.83-.26-7.58,1.16-8.86,8.5-9.08,16.63-.5,33.26-1.08,49.89-1.78,2.75-.12,5.45-1.08,8.2-1.49,4.93-.73,6.49,1.24,6.14,6.34-.54,7.94-.14,15.94-.14,25.55,7.23-8.01,16.1-8.01,24.68-9.2,1.36-.19,3.2-2.5,3.47-4.07,1.15-6.6,1.93-13.27,2.61-19.94,1.75-17.26,3.41-34.53,5.03-51.81,1.61-17.23,2.98-34.48,4.73-51.69.73-7.16,2.28-14.23,3.17-21.37.2-1.59-.24-3.92-1.31-4.89-9-8.15-18.31-15.97-27.33-24.11-3.14-2.84-6.42-5.96-8.29-9.63-1.19-2.34-.77-6.48.63-8.78.88-1.45,5.51-2.16,7.4-1.18,6.41,3.32,12.38,7.52,18.47,11.46,1.09.7,1.82,2.09,2.96,2.55,2.84,1.13,5.83,1.9,8.76,2.82.57-2.45,1.22-4.89,1.68-7.37.44-2.38-.12-5.36,1.13-7.09,3.64-5.04,2.48-7.48-3.17-9.33-2.32-.76-4.52-2.75-6.14-4.7-10.48-12.69-20.84-25.5-31.13-38.35-3.64-4.53-5.98-9.62-4.07-15.59.78-2.45,2.12-6.58,3.4-6.66,4.16-.25,9.36-1.56,11.67,4.19,5.49,13.64,16.53,22.89,26.46,32.97,1.27,1.29,3.44,1.7,5.2,2.51.56-1.67,1.46-3.3,1.62-5,1.79-18.76,3.51-37.53,5.14-56.31.27-3.15-.6-6.5.15-9.49.82-3.27,2.42-6.63,4.6-9.14,1.26-1.46,5.33-2.53,6.39-1.65,1.85,1.52,3.07,4.62,3.29,7.17.68,7.66.72,15.38,1.07,23.07.08,1.67.05,3.52.77,4.94,1.29,2.56,3.79,7.12,4.59,6.88,3.29-.99,8.33.29,8.76-6.25.25-3.75,3.84-7.27,5.47-10.11-.99-2.78-2.32-5.09-2.56-7.52-.28-2.78-.71-7.31,3.55-6.57,2.85.5,6.54,3.77,7.41,6.57,2.57,8.25,4.41,16.81,5.57,25.38.81,6,.02,12.21-.03,18.32-.01,1.46-.54,3.53.21,4.29,3.89,3.97,2.34,8.69,2.55,13.27.39,8.95,1.15,17.89,1.9,26.82.92,11.05,1.85,22.09,3.03,33.11,1.42,13.24,3.35,26.44,4.58,39.7.97,10.45.87,21,1.84,31.44,1.2,12.86,3.24,25.65,4.49,38.51,1.01,10.37,1.24,20.81,2.1,31.2.44,5.36,1.85,10.64,2.14,16,.31,5.7,3.38,6.32,7.85,5.37,4.72-1,9.4-2.25,14.16-2.96,3.56-.53,3.35-2.85,3.35-5.33,0-11.11.03-22.21.01-33.32-.04-25.87-.12-51.74-.15-77.61-.02-20.21-.1-40.43.03-60.64.08-12.27.81-24.54.73-36.81-.08-10.42-.98-20.83-1.38-31.25-.27-7.06-.46-14.13-.4-21.2.03-3.51,1.39-5.82,5.8-5.74,7.32.13,14.7.04,21.94-.88,4.66-.59,9.03-3.32,13.69-4.17,3.25-.59,6.79.35,10.19.67,1.4.13,3.07,1,4.13.51,6.24-2.9,12.1-.8,18,.96,5.31,1.59,10.68,3.07,15.86,5.03,10.55,3.98,19.57,10.39,25.95,19.66,10.13,14.73,15.68,31.22,16.67,49.17.42,7.56,1.19,15.1,1.44,22.66.35,10.41,1.7,21.04.17,31.21-2.06,13.69,1.18,27.2-.66,40.83-.99,7.32.68,14.99,1.12,22.5.08,1.29.18,2.62,0,3.89-1.75,12.71-2.99,25.53-5.62,38.06-1.13,5.38-4.48,10.73-8.06,15.06-4.73,5.71-10.49,10.63-16.19,15.44-2.77,2.33-3.67,4.46-2.31,7.7,7.58,18.01,10.8,37.13,13.64,56.24,2.29,15.41,3.39,31,4.96,46.51,1.31,12.85,2.2,25.76,3.91,38.55,2.09,15.6,5.1,31.09,7.22,46.69,1.25,9.2,1.48,18.55,2.32,27.81,1.46,15.99,3.36,31.94,4.46,47.96.68,9.91.18,19.91.3,29.86.04,3.34.8,6.74.39,10-.35,2.79-1.9,5.44-3.15,8.77ZM1204.42,558.79h-.3c0-1.86.03-3.73,0-5.6-.15-7.31-.61-8.16-8.1-7.66-8.32.56-16.56,2.11-24.85,3.08-8.25.97-8.53,1.36-9.11,9.72-.88,12.7-1.48,25.46-3.33,38.03-.67,4.54-3.74,8.65-1.21,13.54.28.55-.66,1.65-.86,2.54-.63,2.7-1.41,5.4-1.7,8.14-.95,9.16-1.72,18.35-2.55,27.53-.24,2.6-.88,5.28-.47,7.78.21,1.27,2.51,3.28,3.61,3.13,5.43-.74,10.68-2.09,16.32-.74,2.31.55,5.07-.77,7.62-1.29,2.88-.59,5.76-1.16,8.6-1.87,6.82-1.69,13.69-3.23,20.36-5.38,1.37-.44,2.94-3.34,2.8-4.98-1.6-18.81-3.66-37.59-5.28-56.4-.85-9.83-1.06-19.71-1.57-29.57ZM1337.99,253.94s.07,0,.1-.01c0-4.11.35-8.25-.07-12.32-1.16-11.34-4.12-22.34-12.31-30.53-3.09-3.1-9.08-5.19-13.39-4.69-5.01.58-3.95,6.71-4.42,10.86-.1.93-.05,1.87-.05,2.81-.03,20.54.07,41.08-.16,61.62-.09,7.94-1.33,15.87-1.34,23.81-.02,9.17.89,18.34,1.12,27.52.26,10.19.13,20.39.39,30.59.03,1.35,1.08,3.48,2.17,3.88,7.39,2.73,19.37-1.33,22.9-8.87,3.34-7.13,6.34-15.01,6.89-22.74.99-14.01.23-28.16-.14-42.25-.34-13.23-1.12-26.45-1.7-39.67ZM1185.25,347.2c-4.38,4.07-4.43,8.22-3.89,12.53.2,1.64.81,3.3.65,4.89-1.13,11.14-2.41,22.26-3.67,33.38-.17,1.48-.57,2.94-.71,4.42-1.05,11.02-3.06,22.13,2.95,33.9,4.47-7.14,8.47-13.45,12.34-19.84.41-.68.06-1.84,0-2.77-.56-8.18-1.04-16.38-1.74-24.55-1.02-12.07-2.13-24.14-3.4-36.19-.18-1.75-1.45-3.39-2.52-5.77ZM1172.34,463.69c-.52,6.03,1.69,8.05,6.55,6.98,2.28-.5,4.85-.47,7.14.01,5.3,1.11,11.85-3.86,11.03-8.91-1.23-7.53-2.6-15.04-4.26-22.49-.32-1.46-2.03-3.33-3.44-3.69-6.27-1.63-14.72,3.68-15.57,9.88-.82,6.02-.99,12.14-1.45,18.21ZM1295.51,532.54c-.05,1.08-.09,2.17-.14,3.25,2.13.24,4.27.47,6.4.71.13-1.32.26-2.64.39-3.95h-6.66ZM1238.87,650.85c1.62-2.55,3.08-3.84,3.03-5.06-.05-1.24-1.6-2.42-2.5-3.62-.95,1.13-2.47,2.16-2.68,3.41-.2,1.19.99,2.61,2.15,5.28Z" style="fill: #fff; stroke: #fff; stroke-miterlimit: 10;"/>
    <path d="M1410.06,665.99c3.45,1.48,5.78,2.49,8.22,3.54,1.18-7.36-.95-9.13-8.49-6.51-.4-5.52-.74-10.8-1.17-16.08-.43-5.24-3.07-10.43.69-15.73.91-1.28-.85-4.24-.85-6.43,0-12.28.31-24.56.21-36.84-.05-5.89-.74-11.78-1.17-17.66-.21-2.79-.72-5.56-.73-8.35-.04-10.16-.02-20.33.15-30.5.21-12.45.77-24.89.85-37.33.15-21.03.04-42.06.04-63.69-4.45,0-8.68.03-12.91,0-8.05-.07-10.05-2.73-7.91-10.51,1.77-6.44,5.51-9.83,11.59-10.51,7.25-.81,9.58-3.61,9.34-11.17-.26-8.08-1.3-16.23-.59-24.22,1.23-13.89-.36-27.67-.34-41.5,0-8.76.9-17.52.94-26.28.03-7.1-.84-14.21-.92-21.31-.09-7.52.31-15.04.46-22.56.11-5.96.2-11.93.22-17.89.03-9.81.32-19.63-.11-29.42-.36-8-1.62-15.95-2.48-23.92-.08-.74-.19-1.49-.2-2.23-.09-9.45.13-18.91-.32-28.35-.55-11.52-1.75-23-2.49-34.51-.67-10.33-1.7-20.69-1.45-31.01.24-9.92-1.19-20.09,2.52-29.7.44-1.14,2.39-2.36,3.65-2.37,1.53,0,4.04.89,4.44,2.01,1.81,5,3.53,10.15,4.31,15.38.81,5.39.24,10.97.74,16.43,1.33,14.58,2.81,29.16,4.49,43.7.22,1.92,1.94,3.67,2.96,5.5.75-.29,1.5-.57,2.25-.86-.37-2.19-.45-4.48-1.17-6.55-1.53-4.39-.26-7.56,4-8.94,4.05-1.31,7.85-6.02,12.76-1.42.49.46,2.55-1.08,3.93-1.19,2.45-.2,5.43-.84,7.26.25,1.51.91,2.18,4.03,2.31,6.22.28,4.49.05,9.02-.17,13.53-.12,2.58-.67,5.14-.94,7.71-.16,1.46-.76,3.36-.1,4.33,2.62,3.85,3.05,7.2.18,11.28-.84,1.2,1.02,4.07,1.04,6.17.04,4.26-.25,8.53-.57,12.79-.68,9.02-1.8,18.02-2.12,27.05-.23,6.61.82,13.25.78,19.87-.07,10.33-.82,20.65-.82,30.98,0,9.19,1.24,18.41.77,27.55-.33,6.4-1.33,12.42-.1,19.09,1.56,8.47.48,17.43.38,26.18-.02,2-1.01,3.99-1.02,5.99-.02,9.26-.22,18.54.4,27.76.34,5,5.04,3.74,8.36,3.87,2.89.11,5.8,0,8.7-.03.87,0,1.76,0,2.61-.15,3.73-.69,7.45-2,11.18-2.05,7.97-.13,8.44-.74,8.44-8.45,0-10.08-1.21-20.11,2-30.25,1.67-5.29-.51-11.75-.68-17.68-.2-7.07-.02-14.16-.15-21.24-.2-10.99-.63-21.97-.78-32.96-.22-16.64-.14-33.28-.45-49.92-.2-10.97-1.07-21.93-1.18-32.9-.03-2.74,1.74-5.49,3.13-9.56-5.65-6.31-1.7-15.98-2.69-24.92-.67-6.07-.84-12.25-.58-18.35.11-2.57,1.3-6.54,3.08-7.27,3.3-1.36,7.67-2.53,10.7,1.55.42.56,1.13.9,1.64,1.29,10.08-6.34,11.21-6.39,17.46-.74,2.49-1.57,4.86-3.42,7.52-4.69,5.34-2.53,9.78.83,9.46,6.65-.9,16-1.93,32.01-2.37,48.03-.56,20.04-.6,40.1-.81,60.15-.03,2.54.32,5.07.5,7.61.54.41,1.08.82,1.61,1.23,3.68-3.11,7.79-5.83,10.94-9.41,5.8-6.59,11.11-13.61,16.47-20.57,4.15-5.39,9.01-6.76,13.41-3.45,3.51,2.64,3.4,9.83-.37,14.2-11.96,13.86-24.22,27.47-33.03,43.71-.18.33-.37.72-.66.9-7.56,4.61-10.14,10.86-6.37,19.21-3.99,5.69.69,11.63-.48,17.51-.57,2.9.69,6.16,1.1,9.27.17,1.29.49,2.61.37,3.89-1.04,10.48-2.78,20.93-3.07,31.43-.23,8.34,1.35,16.72,2.01,25.1.21,2.67.21,5.38.03,8.05-.14,2.03-.91,4.02-1.05,6.05-.42,5.8,2.51,7.76,8.29,7.21,12.05-1.15,24.16-2.08,36.26-2.29,7.21-.13,9.96,3.73,8.86,10.25-15.66,1.69-31.62,1.95-46.43,8.37-1.13.49-1.8,2.06-3.31,3.88,4.97-.4,8.83-1.07,12.65-.88,2.2.11,4.29,1.79,6.52,2.39,1.71.46,3.68.74,5.36.35,2.47-.58,4.72-2.24,7.19-2.66,1.96-.33,4.12.5,6.19.82-.39,2.16-.14,4.84-1.35,6.34-1.13,1.41-3.76,1.95-5.81,2.19-1.32.15-3.04-.61-4.13-1.5-2.5-2.04-4.91-3.24-7.98-1.28-.28.18-.89.28-1.08.11-5.84-5.09-9.82.99-14.71,2.13-4.45,1.04-5.34,3.48-5.31,7.12.09,8.94.5,17.88.33,26.82-.15,7.87-.95,15.72-1.37,23.58-.09,1.61.29,3.24.29,4.87,0,2.03-.09,4.06-.27,6.08-.06.7-.81,1.38-.77,2.04.48,8.7,1.18,17.39,1.53,26.09.19,4.79-.61,9.66-.07,14.4.29,2.59,1.91,5.55,3.86,7.34,10.57,9.72,21.57,18.98,32.08,28.77,2.12,1.97,3.53,5.46,3.83,8.4.24,2.38-1.09,5.64-2.87,7.23-1.01.91-4.71-.14-6.51-1.34-6.53-4.36-12.73-9.2-19.12-13.77-3.44-2.46-7-4.74-10.94-7.39-.69,1.61-1.36,2.42-1.33,3.2.31,10.22.89,20.43,1.04,30.66.06,4.45-.54,8.93-1.14,13.36-2.05,15.15-1.78,30.27-.23,45.45.35,3.39-1.33,6.94-1.4,10.43-.11,5.94-.03,11.93.6,17.83.84,7.91.07,10.22-6.36,13.53,2.66,3.18,5.97,6.4,2.38,10.84-.21.26,0,1.17.32,1.49,4.9,4.98,2.43,8.9-1.9,12.39,5.15,6.96,4.81,9.36-.84,13.92,1.84,4,4.15,7.53,4.79,11.33.2,1.18-4.1,3.13-7.06,5.24.21,3.21,4.18,9.34-2.13,11.4-6.26,2.05-5.64-5.84-9.17-8.21.68-.79.91-1.28,1.15-1.29,1.9-.1,3.81-.11,5.72-.14-.9-1.79-1.76-3.61-2.72-5.38-2.04-3.75-3.96-7.47-.22-10.48-1.3-4.86-2.5-9.35-3.77-14.11,2.52-.68,3.99-1.08,6.65-1.8-4.89-2.02-7.19-4.32-5.42-8.92.38-.98-1.09-3.77-2.07-3.97-4.88-1.02-4-4.1-3.77-7.61.17-2.49-.96-5.08-1.7-7.58-.03-.1-2.9.39-2.9.58.05,2.65.43,5.28.61,7.93.17,2.41.4,4.85.25,7.25-.15,2.34-.75,4.65-1.22,7.39-1.02-.25-2.46-.59-4.65-1.13.61,1.82.7,3.68,1.44,3.99,3.33,1.38,5.12,3.76,3.03,6.72-1.15,1.64-4.3,1.88-7.61,3.17.83,1.24,2.14,2.97,3.22,4.83.93,1.61,2.45,3.49,2.22,5.03-.35,2.33-2.17,6.41-3.05,6.33-2.97-.27-5.81-2.05-8.7-3.26.57-.44,1.14-.88,1.72-1.32-.44-1.74-1.11-3.45-1.25-5.21-.16-2.05.13-4.15.17-4.94-.73-6.14-1.96-11.15-1.75-16.11.21-4.97.3-9.74-.42-14.73-.67-4.66.73-9.58.62-14.37-.06-2.8-1.88-5.57-1.92-8.36-.15-12.82-.03-25.64.16-38.46.18-12.44.79-24.87.81-37.3.02-11.89-.71-23.79-.71-35.69,0-12.6.56-25.19.71-37.79.13-11.69,0-23.38.06-35.07.08-16.06.39-32.11.23-48.17-.03-2.97-1.2-7.85-2.97-8.44-2.79-.92-6.54,1.05-9.64,2.82-2.65,0-5.36-.36-7.93.08-4.67.8-9.22,2.33-13.89,3.09-3.22.53-4.51,1.85-4.45,5.14.17,8.79.18,17.58.08,26.38-.02,2.18-.67,4.36-1.06,6.53-.26,1.45-1.03,2.97-.78,4.31,2.35,12.68.92,25.39.61,38.09-.02.75-.07,1.5-.02,2.25.55,8.39,1.45,16.78,1.59,25.18.12,7.1-.76,14.21-.92,21.32-.16,7,.15,14.01.03,21.02-.22,12.62-.8,25.24-.85,37.87-.03,7.39,1.05,14.78,1,22.16-.09,13.72-.53,27.44-1.06,41.15-.17,4.45-2.73,7.04-7.46,7.57-5.1.57-7.77-1.97-9.14-6.34-1.43-4.58-4.03-7.84-8.78-9.32-1.1,4.74-1.84,9.3-3.23,13.64-2.08,6.48-6.29,7.62-12.64,3.57.9-1.48,1.8-2.97,2.98-4.92-7.44-2.8-5.88-8.21-4.85-13.93.82-4.55.46-9.31.64-13.98.08-1.98.2-3.95.33-6.63ZM1522.78,128.73c-.6-.1-1.19-.19-1.79-.29-.77,2.22-1.88,4.4-2.17,6.69-.12.99,1.44,2.19,2.24,3.3.95-.98,2.64-1.92,2.69-2.95.12-2.23-.6-4.5-.97-6.75Z" style="fill: #fff; stroke: #fff; stroke-miterlimit: 10;"/>
    <path d="M240.18,633.09c-1.79-.82-3.36-1.53-5.23-2.39-1.54,5.38,2.08,5.95,5.69,6.96,0,11.94,1.38,24.12-.52,35.77-1.13,6.88-.57,13.71-1.74,20.2-1.99,11.04-4.87,22.24-12.77,31.18-3.07,3.47-5.32,7.65-8.32,11.19-2.53,2.98-5.6,5.51-8.42,8.24-.1-.69-.2-1.38-.3-2.07-2.93-1.54-5.85-3.07-8.78-4.61-.39.61-.78,1.22-1.16,1.83.79.85,1.45,1.86,2.38,2.52,5.57,4,6.26,6.09.6,9.42-8.2,4.82-17.22,8.3-26.09,11.86-5.25,2.11-4.16-3.81-6.12-5.88-2.4,1.23-5.07,3.74-6.87,3.23-2.23-.63-3.74-3.79-6.06-6.42-5.07,5.43-8.45,1.08-12.81-2.23-17.5-13.33-26.32-32.17-33.56-51.96-3.58-9.8-3.18-10.12-12.52-5.29-9.94,5.15-19.71,10.61-29.56,15.93-6.63,3.58-12.81,2.56-15.69-2.59-2.7-4.82-.96-8.48,4-10.67,7.93-3.5,15.66-7.51,23.36-11.5,7.79-4.03,15.37-8.46,23.19-12.42,4.87-2.47,6.95-4.69,5.43-11.23-1.78-7.62-.4-15.98-.38-24.01.02-7.3.28-14.6,0-21.89-.17-4.52-.51-8.54,6.58-7.48.4-.81.8-1.63,1.21-2.44-1.83-.88-4.88-1.43-5.24-2.72-.85-3-.38-6.37-.48-9.59-.06-2.11-.15-4.22-.26-6.32-.22-3.89-.64-7.78-.55-11.65.02-.69,2.09-1.36,3.25-1.98,1.01-.54,2.07-1,3.11-1.49-.8-1.07-1.61-2.13-2.39-3.21-1.29-1.78-3.55-3.52-3.67-5.38-.7-11.11-.08-22.36-1.59-33.34-.92-6.66-1.29-14.48-8.54-19.2.98-1.07,1.67-2.15,2.64-2.83,5.76-3.99,6.75-9.53,6.61-16.19-.29-13.01.28-26.04.42-39.06.02-1.99-.31-4-.59-5.99-.18-1.28-.86-2.55-.78-3.8.48-7.11,1.32-14.21,1.65-21.33.3-6.45.18-12.93.11-19.4-.18-14.71-.39-29.43-.76-44.14-.04-1.79-.56-4.21-1.78-5.22-8.03-6.61-16.27-12.96-24.51-19.3-9.1-7-18.31-13.86-27.4-20.89-2.65-2.05-4.98-4.51-7.57-6.65-3.59-2.96-3.54-6.2-1.2-9.89,2.66-4.17,6.31-3.91,9.73-1.73,8.51,5.42,16.87,11.09,25.15,16.86,7.37,5.13,14.53,10.58,21.87,15.75,1.27.89,3.01,1.12,5.33,1.93.33-5.62.37-10.58.96-15.48,1.9-15.77,2.01-31.91,8.62-46.79,1.49-3.35.54-5.52-1.73-7.97-12.34-13.29-24.37-26.87-36.93-39.94-4.78-4.98-4.91-11.04-6-16.96-.2-1.1,1.71-3.73,2.54-3.68,2.39.13,5.41.59,6.96,2.14,6.47,6.49,12.36,13.55,18.72,20.15,7,7.28,14.31,14.26,21.44,21.41,3.1,3.11,6.24,3.87,8.57-.5,5.36-10.07,15.74-14.36,23.83-21.3.14-.12.29-.24.45-.33,9.33-5.48,37.82-3.64,46.49,2.55,18.25,13.03,29.15,30.81,35.3,52.07,4.38,15.14,4.92,30.53,4.8,46.1-.12,15.72.08,31.45.42,47.17.25,11.61-6.54,17.84-17.86,15.68-1.18-.23-2.11-1.73-2.34-1.93-2.98.86-5.75,2.28-8.54,2.32-5.58.08-11.17-.69-16.77-.95-4.23-.2-6.63-.84-6.28-6.48.84-13.52.98-27.11.65-40.65-.29-11.64.8-23.42-2.65-34.88-1.64-5.43-4.13-9.36-10.11-10.71-5.88-1.33-9.96,1.31-13.19,5.41-5.78,7.33-7.78,15.82-7.55,25.18.39,15.24.34,30.49.07,45.73-.07,3.83.88,6.47,3.89,8.61,12.78,9.08,25.59,18.1,38.27,27.31,9.13,6.63,14.66,15.51,16.35,26.93-10.27,2.5-18.65.78-26.02-6.48-9.85-9.7-20.12-18.99-30.24-28.43-.62-.58-1.47-.93-2.87-1.79,0,8.6,0,16.47,0,24.33-.01,28.45,0,56.9-.05,85.36-.01,6.86.06,13.75-.43,20.58-.18,2.56-1.87,5.02-2.44,6.42.72,4.87,1.51,9.21,1.95,13.59.22,2.2-.72,4.61-.17,6.66,1.07,3.94,3.42,7.97-3.75,7.71,0,1.65-.28,4.66.07,4.74,6.91,1.51,4.52,6.62,4.42,10.82-.08,3.48-.09,6.97-.28,10.44-.19,3.29-.92,6.58-.82,9.85.45,14.96,1.07,29.91,1.71,44.86.51,11.85,1.02,23.7,1.82,35.53.2,2.91.71,6.48,2.51,8.45,3.47,3.8,7.56,8.39,12.14,9.46,4.83,1.14,12.73-8.96,12.94-14.63.25-6.68.09-13.38.27-20.07.22-8.38.86-16.76.87-25.14.01-12.84-.11-25.69-.7-38.51-.22-4.76,1-6.26,5.78-6.27,7.84-.03,15.68-1.17,23.52-1.14,6.6.02,13.25.72,19.76,1.83,1.52.26,3.5,3.36,3.61,5.25.28,4.94-.61,9.93-.56,14.9.08,7.23.61,14.45.88,21.68.04,1.07-.26,2.16-.41,3.31ZM144.45,553.27c.59-.21,1.18-.42,1.77-.63v-7.01c-.43-.22-.85-.44-1.28-.66-1.11,1.38-2.95,2.69-3.11,4.18-.13,1.27,1.66,2.74,2.61,4.13ZM224.56,636.67c-.76.06-1.53.13-2.29.19,0,2.07-.47,4.33.23,6.13.28.73,3.11.47,5.83.79-1.76-3.32-2.76-5.21-3.76-7.11Z" style="fill: #fff; stroke: #fff; stroke-miterlimit: 10;"/>
    <path d="M878.66,722.55c-5.33.84-10.65,1.68-15.98,2.52-3.09.49-6.2,1.41-9.27,1.3-1.78-.07-3.49-1.8-5.23-2.79,1.35-2.36,2.32-6.39,4.1-6.79,7.01-1.57,14.27-2.03,21.44-2.83,3.25-.36,6.54-.83,9.79-.72,1.72.06,3.41,1.26,5.11,1.94-1.1,2.34-1.69,5.22-3.46,6.83-1.38,1.26-4.2.92-6.38,1.3-.04-.25-.08-.5-.12-.76Z" style="fill: #fff; stroke: #fff; stroke-miterlimit: 10;"/>
    <path d="M891.58,720.21c1.01-8.38,3.71-10.32,10.9-9.51,2.62.29,5.39-.92,8.11-1.22,2.09-.23,4.68-.82,6.2.12,1.16.71,1.85,3.94,1.21,5.38-.69,1.55-3.06,3.05-4.86,3.28-7.1.92-14.26,1.34-21.57,1.95Z" style="fill: #fff; stroke: #fff; stroke-miterlimit: 10;"/>
    <path d="M1595.06,424c-4.36.33-6.14-1.78-6-6.01.15-4.45,2.06-7.66,6.51-8.42,3.79-.64,7.37,3.55,7.42,8.08.06,5.5-3.83,6.08-7.93,6.34Z" style="fill: #fff; stroke: #fff; stroke-miterlimit: 10;"/>
    <path d="M933.21,716.87c-3.66.4-5.72-1.41-5.7-5.05.02-4.19,1.59-7.07,6.6-6.98,4.01.08,6.67,1.42,6.59,5.67-.09,4.64-2.99,6.53-7.5,6.35Z" style="fill: #fff; stroke: #fff; stroke-miterlimit: 10;"/>
    <path d="M1152.68,697.47c1.27-1.62,2.54-3.23,3.81-4.85,2.63,2.56,5.26,5.13,7.89,7.69-1.9,1.24-3.68,3.22-5.73,3.55-4,.65-5.78-1.69-5.97-6.39Z" style="fill: #fff; stroke: #fff; stroke-miterlimit: 10;"/>
    <path d="M800.86,700.88c7.44-2.29,14.87-4.57,22.75-6.99-1.44,5.9-15.97,10.82-22.75,6.99Z" style="fill: #fff; stroke: #fff; stroke-miterlimit: 10;"/>
    <path d="M1330.47,723.12c-2.27-4.25-11.24,4.95-9.89-5.85.64-5.12,4.44-4.2,7.68-3.22,4.79,1.45,4.37,4.74,2.21,9.07Z" style="fill: #fff; stroke: #fff; stroke-miterlimit: 10;"/>
    <path d="M873.75,694.62c-4.18-.21-7.48-.18-10.7-.67-.84-.13-2.04-1.93-1.96-2.88.08-.94,1.55-2.49,2.42-2.5,3.78-.06,7.86-.23,10.24,6.04Z" style="fill: #fff; stroke: #fff; stroke-miterlimit: 10;"/>
    <path d="M831.62,692.84c3.59-1,7.15-2.2,10.81-2.83.78-.13,2.13,1.71,2.74,2.89.16.32-1.45,2.24-2.24,2.24-3.7,0-7.41-.42-11.11-.7-.07-.53-.13-1.07-.2-1.6Z" style="fill: #fff; stroke: #fff; stroke-miterlimit: 10;"/>
    <path d="M846.83,694.05c.77-2.02.82-2.34.9-2.34,2.9-.21,5.8-.38,8.7-.56-.07.82-.07,2.35-.21,2.36-2.88.27-5.79.37-9.38.54Z" style="fill: #fff; stroke: #fff; stroke-miterlimit: 10;"/>
  </g>
</svg>